HIERARCHY
ROOT Hips
{
	OFFSET 0.000000 0.000000 0.000000
	CHANNELS 6 Xposition Yposition Zposition Zrotation Yrotation Xrotation 
	JOINT LeftUpLeg_virtual
	{
		OFFSET 0.000000 0.000000 0.000000
		CHANNELS 3 Zrotation Yrotation Xrotation
		JOINT LeftUpLeg
		{
			OFFSET 10.205400 -3.823500 0.155100
			CHANNELS 3 Zrotation Yrotation Xrotation
			JOINT LeftLeg
			{
				OFFSET 0.708757 -12.982077 0.567790
				CHANNELS 3 Zrotation Yrotation Xrotation
				JOINT LeftFoot
				{
					OFFSET -0.708756 -10.717838 -2.184338
					CHANNELS 3 Zrotation Yrotation Xrotation
					JOINT LeftToeBase
					{
						OFFSET 0.108149 -7.191104 7.560241
						CHANNELS 3 Zrotation Yrotation Xrotation
						End Site
						{
							OFFSET 0.000000 0.000000 0.000000
						}
					}
				}
			}
		}
	}
	JOINT RightUpLeg_virtual
	{
		OFFSET 0.000000 0.000000 0.000000
		CHANNELS 3 Zrotation Yrotation Xrotation
		JOINT RightUpLeg
		{
			OFFSET -10.205400 -3.823500 0.005500
			CHANNELS 3 Zrotation Yrotation Xrotation
			JOINT RightLeg
			{
				OFFSET -0.708756 -12.982134 0.610632
				CHANNELS 3 Zrotation Yrotation Xrotation
				JOINT RightFoot
				{
					OFFSET 0.708754 -10.717769 -1.945823
					CHANNELS 3 Zrotation Yrotation Xrotation
					JOINT RightToeBase
					{
						OFFSET -0.108140 -7.191069 7.372968
						CHANNELS 3 Zrotation Yrotation Xrotation
						End Site
						{
							OFFSET 0.000000 0.000000 0.000000
						}
					}
				}
			}
		}
	}
	JOINT Spine_virtual
	{
		OFFSET 0.000000 0.000000 0.000000
		CHANNELS 3 Zrotation Yrotation Xrotation
		JOINT Spine
		{
			OFFSET 0.000000 6.876099 0.125700
			CHANNELS 3 Zrotation Yrotation Xrotation
			JOINT Spine1
			{
				OFFSET 0.000000 8.022060 0.146608
				CHANNELS 3 Zrotation Yrotation Xrotation
				JOINT Spine2
				{
					OFFSET 0.000000 9.168068 0.167552
					CHANNELS 3 Zrotation Yrotation Xrotation
					JOINT Neck_virtual
					{
						OFFSET 0.000000 0.000000 0.000000
						CHANNELS 3 Zrotation Yrotation Xrotation
						JOINT Neck
						{
							OFFSET 0.000000 10.314075 0.188496
							CHANNELS 3 Zrotation Yrotation Xrotation
							JOINT Head
							{
								OFFSET 0.000000 7.643700 -2.377400
								CHANNELS 3 Zrotation Yrotation Xrotation
								End Site
								{
									OFFSET 0.000000 0.000000 0.000000
								}
							}
						}
					}
					JOINT LeftShoulder_virtual
					{
						OFFSET 0.000000 0.000000 0.000000
						CHANNELS 3 Zrotation Yrotation Xrotation
						JOINT LeftShoulder
						{
							OFFSET 4.392200 8.824978 0.174984
							CHANNELS 3 Zrotation Yrotation Xrotation
							JOINT LeftArm
							{
								OFFSET 8.771219 -2.981674 -0.026999
								CHANNELS 3 Zrotation Yrotation Xrotation
								JOINT LeftForeArm
								{
									OFFSET 8.512804 0.000000 -0.000000
									CHANNELS 3 Zrotation Yrotation Xrotation
									JOINT LeftHand
									{
										OFFSET 18.484802 0.000000 -0.000000
										CHANNELS 3 Zrotation Yrotation Xrotation
										End Site
										{
											OFFSET 0.000000 0.000000 0.000000
										}
									}
								}
							}
						}
					}
					JOINT RightShoulder_virtual
					{
						OFFSET 0.000000 0.000000 0.000000
						CHANNELS 3 Zrotation Yrotation Xrotation
						JOINT RightShoulder
						{
							OFFSET -4.392200 8.824993 0.141379
							CHANNELS 3 Zrotation Yrotation Xrotation
							JOINT RightArm
							{
								OFFSET -8.771282 -2.981682 -0.094208
								CHANNELS 3 Zrotation Yrotation Xrotation
								JOINT RightForeArm
								{
									OFFSET -8.494598 0.000000 0.000000
									CHANNELS 3 Zrotation Yrotation Xrotation
									JOINT RightHand
									{
										OFFSET -18.483803 0.000000 0.000001
										CHANNELS 3 Zrotation Yrotation Xrotation
										End Site
										{
											OFFSET 0.000000 0.000000 0.000000
										}
									}
								}
							}
						}
					}
				}
			}
		}
	}
}
MOTION
Frames: 4
Frame Time: 0.033333
15.174932 34.221840 -16.710022 -179.814989 -34.488395 179.580631 -0.737518 -4.237562 6.677210 5.823204 -2.881555 -36.839192 7.035949 6.648513 27.882813 -9.520125 2.417791 10.791753 0.000000 0.000000 0.000000 4.627816 -5.134981 5.243616 9.954518 1.941051 -27.265072 -5.642121 0.554708 21.812928 1.363385 1.101568 4.147836 0.000000 0.000000 0.000000 1.831503 -1.737354 -5.248911 1.981336 1.808816 -8.062085 -1.147303 -2.753738 12.350466 -0.032908 -0.044743 -0.046323 -1.223941 -0.882403 12.882464 -3.898609 -2.543918 17.677491 0.000000 0.000000 0.000000 0.436765 -0.581525 9.923523 -7.305360 -6.401664 4.861438 -37.163397 12.459237 -9.512963 -170.969908 -80.379223 -174.629209 0.000000 0.000000 0.000000 -3.847170 1.006720 8.870378 23.846091 11.966173 5.109047 35.241990 -14.496049 14.974999 -170.261480 71.926646 -171.368668 0.000000 0.000000 0.000000 
14.988857 34.205048 -16.789259 -179.712591 -34.025899 179.491511 -0.837215 -4.286272 6.682965 5.569586 -3.710023 -37.106830 6.669860 5.567507 26.475862 -10.343821 1.603054 9.950779 0.000000 0.000000 0.000000 4.653139 -4.939075 5.489662 9.671397 2.316970 -27.299622 -5.526689 0.516300 22.192509 1.536469 1.098690 3.732760 0.000000 0.000000 0.000000 1.853567 -1.583125 -5.300736 2.103814 1.895278 -8.082439 -1.068351 -2.823345 12.374261 -0.039903 -0.017437 -0.069891 -1.198023 -0.976857 12.771649 -3.829220 -2.490086 17.506834 0.000000 0.000000 0.000000 0.507870 -0.699440 9.846540 -7.311391 -6.421675 4.825660 -36.254651 12.047674 -9.616531 -169.795484 -80.268977 -175.880021 0.000000 0.000000 0.000000 -3.887415 0.882070 8.850236 23.854338 11.932102 5.108180 34.375341 -14.189629 15.260589 -170.922656 71.728038 -171.988070 0.000000 0.000000 0.000000 
14.748438 34.224064 -16.894625 -179.560127 -33.509161 179.299624 -0.784501 -4.272891 6.687396 5.090659 -4.320151 -37.174298 6.576704 4.973773 25.202114 -10.873799 1.214192 9.550222 0.000000 0.000000 0.000000 4.689070 -4.615630 5.840842 9.290446 2.598057 -27.322565 -5.537918 0.505417 22.766089 1.745273 0.993566 2.967094 0.000000 0.000000 0.000000 1.923888 -1.422704 -5.377994 2.174408 1.954942 -8.090077 -1.063707 -2.895544 12.353981 -0.053353 -0.040011 -0.145253 -1.253949 -1.110930 12.894654 -3.674383 -2.460290 17.552889 0.000000 0.000000 0.000000 0.538726 -0.752585 9.916110 -7.424594 -6.218954 4.730300 -35.529466 11.529964 -9.872898 -169.210546 -80.228952 -176.569706 0.000000 0.000000 0.000000 -3.933001 0.796553 8.925736 23.961364 12.072085 5.083106 33.443400 -13.621665 15.307434 -171.534040 71.683416 -172.535032 0.000000 0.000000 0.000000 
14.472789 34.273800 -16.999207 -179.653277 -33.217751 179.479709 -0.769723 -4.039530 6.997503 4.358525 -4.428988 -36.633761 6.906008 4.770791 24.319534 -11.121378 1.266834 9.816906 0.000000 0.000000 0.000000 4.630847 -4.253773 6.017314 8.888773 2.710988 -27.448941 -5.654091 0.549294 23.584262 2.033067 0.840212 2.060956 0.000000 0.000000 0.000000 1.816544 -1.264833 -5.730462 2.095296 2.028300 -8.231896 -1.066181 -2.947235 12.361160 -0.033251 -0.017279 -0.074939 -1.265349 -1.139805 12.909789 -3.469459 -2.427594 17.501176 0.000000 0.000000 0.000000 0.421562 -0.851911 9.937624 -7.717664 -6.082172 4.718053 -35.000560 10.786316 -9.934625 -169.888525 -80.318401 -175.989058 0.000000 0.000000 0.000000 -3.966104 0.693243 8.905937 23.857055 12.042232 4.979456 32.243069 -13.196014 15.712266 -172.124005 71.433561 -173.017311 0.000000 0.000000 0.000000 
